<svg width="800" height="800" viewBox="0 0 800 800" fill="none" xmlns="http://www.w3.org/2000/svg">
  <rect width="800" height="800" rx="40" fill="#EFF6FF"/>
  <circle cx="400" cy="220" r="120" fill="#60A5FA" opacity="0.15"/>
  <circle cx="500" cy="180" r="32" fill="#2563EB"/>
  <rect x="220" y="360" width="360" height="280" rx="40" fill="#FFFFFF"/>
  <rect x="260" y="420" width="280" height="28" rx="14" fill="#93C5FD"/>
  <rect x="260" y="470" width="240" height="28" rx="14" fill="#93C5FD"/>
  <rect x="260" y="520" width="200" height="28" rx="14" fill="#93C5FD"/>
  <rect x="260" y="580" width="180" height="40" rx="20" fill="#2563EB"/>
  <path d="M440 180C460 180 480 200 480 220C480 240 460 260 440 260C420 260 400 240 400 220C400 200 420 180 440 180Z" fill="#1D4ED8"/>
  <text x="400" y="740" text-anchor="middle" fill="#1D4ED8" font-family="Inter, Arial, sans-serif" font-size="40" font-weight="700">Signup Alt</text>
</svg>
